<svg width="64" height="64" viewBox="0 0 64 64" fill="none" xmlns="http://www.w3.org/2000/svg">
<path d="M41 19C41.5523 19 42 18.5523 42 18C42 17.4477 41.5523 17 41 17C40.4477 17 40 17.4477 40 18C40 18.5523 40.4477 19 41 19Z" fill="url(#paint0_linear_224_9381)"/>
<path d="M10 17V37C10 37.2652 10.1054 37.5196 10.2929 37.7071C10.4804 37.8946 10.7348 38 11 38C11.2652 38 11.5196 37.8946 11.7071 37.7071C11.8946 37.5196 12 37.2652 12 37V17C12 16.7348 11.8946 16.4804 11.7071 16.2929C11.5196 16.1054 11.2652 16 11 16C10.7348 16 10.4804 16.1054 10.2929 16.2929C10.1054 16.4804 10 16.7348 10 17Z" fill="url(#paint1_linear_224_9381)"/>
<path d="M20.914 13.328C21.1015 13.5155 21.3558 13.6208 21.621 13.6208C21.8862 13.6208 22.1405 13.5155 22.328 13.328C23.0779 12.5779 23.4991 11.5607 23.4991 10.5C23.4991 9.43934 23.0779 8.42211 22.328 7.672C22.1394 7.48984 21.8868 7.38905 21.6246 7.39133C21.3624 7.3936 21.1116 7.49877 20.9262 7.68418C20.7408 7.86959 20.6356 8.1204 20.6333 8.3826C20.631 8.6448 20.7318 8.8974 20.914 9.086C21.2889 9.46106 21.4996 9.96967 21.4996 10.5C21.4996 11.0303 21.2889 11.5389 20.914 11.914C20.7265 12.1015 20.6212 12.3558 20.6212 12.621C20.6212 12.8862 20.7265 13.1405 20.914 13.328Z" fill="url(#paint2_linear_224_9381)"/>
<path d="M23.743 14.743C23.6475 14.8352 23.5713 14.9456 23.5189 15.0676C23.4665 15.1896 23.4389 15.3208 23.4377 15.4536C23.4366 15.5864 23.4619 15.7181 23.5122 15.841C23.5625 15.9639 23.6367 16.0755 23.7306 16.1694C23.8245 16.2633 23.9361 16.3375 24.059 16.3878C24.1819 16.4381 24.3136 16.4634 24.4464 16.4622C24.5792 16.4611 24.7104 16.4335 24.8324 16.3811C24.9544 16.3287 25.0648 16.2525 25.157 16.157C26.6549 14.6554 27.4962 12.621 27.4962 10.5C27.4962 8.37901 26.6549 6.3446 25.157 4.843C24.9684 4.66084 24.7158 4.56005 24.4536 4.56233C24.1914 4.5646 23.9406 4.66977 23.7552 4.85518C23.5698 5.04059 23.4646 5.2914 23.4623 5.5536C23.46 5.8158 23.5608 6.0684 23.743 6.257C24.8665 7.38329 25.4974 8.90917 25.4974 10.5C25.4974 12.0908 24.8665 13.6167 23.743 14.743Z" fill="url(#paint3_linear_224_9381)"/>
<path d="M18.5 11.5C19.0523 11.5 19.5 11.0523 19.5 10.5C19.5 9.94772 19.0523 9.5 18.5 9.5C17.9477 9.5 17.5 9.94772 17.5 10.5C17.5 11.0523 17.9477 11.5 18.5 11.5Z" fill="url(#paint4_linear_224_9381)"/>
<path d="M27 4H46V6H35C34.7348 6 34.4804 6.10536 34.2929 6.29289C34.1054 6.48043 34 6.73478 34 7C34 7.26522 34.1054 7.51957 34.2929 7.70711C34.4804 7.89464 34.7348 8 35 8H36.1L36.827 15.268C36.2484 16.1227 35.9511 17.1367 35.9767 18.1685C36.0023 19.2004 36.3494 20.1984 36.9697 21.0234C37.5899 21.8484 38.4523 22.4591 39.4364 22.7702C40.4205 23.0814 41.4772 23.0775 42.459 22.759L48.267 25.4C48.4929 25.9984 48.8589 26.5338 49.3344 26.9615C49.81 27.3892 50.3811 27.6966 51 27.858V30H50C49.7348 30 49.4804 30.1054 49.2929 30.2929C49.1054 30.4804 49 30.7348 49 31H44C43.7348 31 43.4804 31.1054 43.2929 31.2929C43.1054 31.4804 43 31.7348 43 32V38C43 38.2652 43.1054 38.5196 43.2929 38.7071C43.4804 38.8946 43.7348 39 44 39H46C46.2652 39 46.5196 38.8946 46.7071 38.7071C46.8946 38.5196 47 38.2652 47 38C47 37.7348 46.8946 37.4804 46.7071 37.2929C46.5196 37.1054 46.2652 37 46 37H45V33H49V34C48.999 34.1867 49.0502 34.3699 49.148 34.529C49.2457 34.688 49.386 34.8166 49.553 34.9L51.553 35.9C51.6918 35.9694 51.8448 36.0055 52 36.0055C52.1552 36.0055 52.3082 35.9694 52.447 35.9L54.447 34.9C54.614 34.8166 54.7543 34.688 54.852 34.529C54.9498 34.3699 55.001 34.1867 55 34V33H59V37H58C57.7348 37 57.4804 37.1054 57.2929 37.2929C57.1054 37.4804 57 37.7348 57 38C57 38.2652 57.1054 38.5196 57.2929 38.7071C57.4804 38.8946 57.7348 39 58 39H60C60.2652 39 60.5196 38.8946 60.7071 38.7071C60.8946 38.5196 61 38.2652 61 38V32C61 31.7348 60.8946 31.4804 60.7071 31.2929C60.5196 31.1054 60.2652 31 60 31H55C55 30.7348 54.8946 30.4804 54.7071 30.2929C54.5196 30.1054 54.2652 30 54 30H53V27.858C53.8561 27.637 54.6149 27.1385 55.1577 26.4404C55.7005 25.7424 55.9967 24.8842 56 24C56.0002 23.9289 55.9942 23.858 55.982 23.788C55.9673 23.5228 55.8478 23.2743 55.6499 23.0971C55.4519 22.92 55.1917 22.8288 54.9265 22.8435C54.6613 22.8582 54.4128 22.9777 54.2356 23.1756C54.0585 23.3736 53.9673 23.6338 53.982 23.899C53.9816 23.9335 53.9877 23.9678 54 24C53.9999 24.3934 53.8837 24.778 53.6661 25.1058C53.4485 25.4335 53.139 25.6898 52.7765 25.8425C52.4139 25.9952 52.0144 26.0376 51.6278 25.9644C51.2413 25.8912 50.8849 25.7057 50.6034 25.4309C50.3218 25.1562 50.1274 24.8045 50.0447 24.4199C49.962 24.0353 49.9945 23.6349 50.1383 23.2686C50.282 22.9024 50.5306 22.5868 50.8528 22.3611C51.1751 22.1354 51.5567 22.0098 51.95 22C51.978 22 52.073 22.014 52.101 22.015C52.3548 22.0251 52.6027 21.9362 52.7924 21.7673C52.982 21.5983 53.0988 21.3623 53.118 21.109C53.1355 20.8482 53.0532 20.5904 52.8878 20.388C52.7223 20.1856 52.4861 20.0537 52.227 20.019C52.181 20.012 52.046 20 52 20C51.627 20.005 51.2567 20.0629 50.9 20.172L45.943 17.472C45.8658 16.688 45.6025 15.9338 45.175 15.272L45.905 8H47C47.2652 8 47.5196 7.89464 47.7071 7.70711C47.8946 7.51957 48 7.26522 48 7V4H61C61.2652 4 61.5196 3.89464 61.7071 3.70711C61.8946 3.51957 62 3.26522 62 3C62 2.73478 61.8946 2.48043 61.7071 2.29289C61.5196 2.10536 61.2652 2 61 2H27C26.7348 2 26.4804 2.10536 26.2929 2.29289C26.1054 2.48043 26 2.73478 26 3C26 3.26522 26.1054 3.51957 26.2929 3.70711C26.4804 3.89464 26.7348 4 27 4ZM53 33.382L52 33.882L51 33.382V32H53V33.382ZM38 18C38 17.4067 38.1759 16.8266 38.5056 16.3333C38.8352 15.8399 39.3038 15.4554 39.852 15.2284C40.4001 15.0013 41.0033 14.9419 41.5853 15.0576C42.1672 15.1734 42.7018 15.4591 43.1213 15.8787C43.5409 16.2982 43.8266 16.8328 43.9424 17.4147C44.0581 17.9967 43.9987 18.5999 43.7716 19.1481C43.5446 19.6962 43.1601 20.1648 42.6667 20.4944C42.1734 20.8241 41.5933 21 41 21C40.2044 21 39.4413 20.6839 38.8787 20.1213C38.3161 19.5587 38 18.7956 38 18ZM45.709 19.616L48.983 21.4C48.5499 21.8946 48.2465 22.4891 48.1 23.13L44.547 21.515C45.0721 20.9774 45.4693 20.3283 45.709 19.616ZM43.334 13.606C42.6202 13.2088 41.8169 13.0003 41 13.0003C40.1831 13.0003 39.3798 13.2088 38.666 13.606L38.1 8H43.9L43.334 13.606Z" fill="url(#paint5_linear_224_9381)"/>
<path d="M3 4H5V7C5 7.26522 5.10536 7.51957 5.29289 7.70711C5.48043 7.89464 5.73478 8 6 8H7V10C7 11.0609 7.42143 12.0783 8.17157 12.8284C8.92172 13.5786 9.93913 14 11 14C12.0609 14 13.0783 13.5786 13.8284 12.8284C14.5786 12.0783 15 11.0609 15 10V8H16C16.2652 8 16.5196 7.89464 16.7071 7.70711C16.8946 7.51957 17 7.26522 17 7V4H22C22.2652 4 22.5196 3.89464 22.7071 3.70711C22.8946 3.51957 23 3.26522 23 3C23 2.73478 22.8946 2.48043 22.7071 2.29289C22.5196 2.10536 22.2652 2 22 2H3C2.73478 2 2.48043 2.10536 2.29289 2.29289C2.10536 2.48043 2 2.73478 2 3C2 3.26522 2.10536 3.51957 2.29289 3.70711C2.48043 3.89464 2.73478 4 3 4ZM13 10C13 10.5304 12.7893 11.0391 12.4142 11.4142C12.0391 11.7893 11.5304 12 11 12C10.4696 12 9.96086 11.7893 9.58579 11.4142C9.21071 11.0391 9 10.5304 9 10V8H13V10ZM15 4V6H7V4H15Z" fill="url(#paint6_linear_224_9381)"/>
<path d="M57 48V41C57 40.7348 56.8946 40.4804 56.7071 40.2929C56.5196 40.1054 56.2652 40 56 40H48C47.7348 40 47.4804 40.1054 47.2929 40.2929C47.1054 40.4804 47 40.7348 47 41V48H44C43.7348 48 43.4804 48.1054 43.2929 48.2929C43.1054 48.4804 43 48.7348 43 49C43 49.2652 43.1054 49.5196 43.2929 49.7071C43.4804 49.8946 43.7348 50 44 50H57C57.7956 50 58.5587 50.3161 59.1213 50.8787C59.6839 51.4413 60 52.2044 60 53V57C60 57.7956 59.6839 58.5587 59.1213 59.1213C58.5587 59.6839 57.7956 60 57 60H21C20.7348 60 20.4804 60.1054 20.2929 60.2929C20.1054 60.4804 20 60.7348 20 61C20 61.2652 20.1054 61.5196 20.2929 61.7071C20.4804 61.8946 20.7348 62 21 62H57C58.3256 61.9984 59.5964 61.4711 60.5338 60.5338C61.4711 59.5964 61.9984 58.3256 62 57V53C61.9984 51.6744 61.4711 50.4036 60.5338 49.4662C59.5964 48.5289 58.3256 48.0016 57 48ZM49 48V42H51V43C51 43.2652 51.1054 43.5196 51.2929 43.7071C51.4804 43.8946 51.7348 44 52 44C52.2652 44 52.5196 43.8946 52.7071 43.7071C52.8946 43.5196 53 43.2652 53 43V42H55V48H49Z" fill="url(#paint7_linear_224_9381)"/>
<path d="M17 60H7C6.20435 60 5.44129 59.6839 4.87868 59.1213C4.31607 58.5587 4 57.7956 4 57V53C4 52.2044 4.31607 51.4413 4.87868 50.8787C5.44129 50.3161 6.20435 50 7 50H40C40.2652 50 40.5196 49.8946 40.7071 49.7071C40.8946 49.5196 41 49.2652 41 49C41 48.7348 40.8946 48.4804 40.7071 48.2929C40.5196 48.1054 40.2652 48 40 48H37V41C37 40.7348 36.8946 40.4804 36.7071 40.2929C36.5196 40.1054 36.2652 40 36 40H28C27.7348 40 27.4804 40.1054 27.2929 40.2929C27.1054 40.4804 27 40.7348 27 41V48H17V41C17 40.7348 16.8946 40.4804 16.7071 40.2929C16.5196 40.1054 16.2652 40 16 40H8C7.73478 40 7.48043 40.1054 7.29289 40.2929C7.10536 40.4804 7 40.7348 7 41V48C5.6744 48.0016 4.40356 48.5289 3.46622 49.4662C2.52888 50.4036 2.00159 51.6744 2 53V57C2.00159 58.3256 2.52888 59.5964 3.46622 60.5338C4.40356 61.4711 5.6744 61.9984 7 62H17C17.2652 62 17.5196 61.8946 17.7071 61.7071C17.8946 61.5196 18 61.2652 18 61C18 60.7348 17.8946 60.4804 17.7071 60.2929C17.5196 60.1054 17.2652 60 17 60ZM29 42H31V43C31 43.2652 31.1054 43.5196 31.2929 43.7071C31.4804 43.8946 31.7348 44 32 44C32.2652 44 32.5196 43.8946 32.7071 43.7071C32.8946 43.5196 33 43.2652 33 43V42H35V48H29V42ZM9 42H11V43C11 43.2652 11.1054 43.5196 11.2929 43.7071C11.4804 43.8946 11.7348 44 12 44C12.2652 44 12.5196 43.8946 12.7071 43.7071C12.8946 43.5196 13 43.2652 13 43V42H15V48H9V42Z" fill="url(#paint8_linear_224_9381)"/>
<path d="M44 58H55C55.7956 58 56.5587 57.6839 57.1213 57.1213C57.6839 56.5587 58 55.7956 58 55C58 54.2044 57.6839 53.4413 57.1213 52.8787C56.5587 52.3161 55.7956 52 55 52H9C8.20435 52 7.44129 52.3161 6.87868 52.8787C6.31607 53.4413 6 54.2044 6 55C6 55.7956 6.31607 56.5587 6.87868 57.1213C7.44129 57.6839 8.20435 58 9 58H38C38.2652 58 38.5196 57.8946 38.7071 57.7071C38.8946 57.5196 39 57.2652 39 57C39 56.7348 38.8946 56.4804 38.7071 56.2929C38.5196 56.1054 38.2652 56 38 56H34.816C35.0614 55.3559 35.0614 54.6441 34.816 54H41.184C41.0656 54.3203 41.0033 54.6586 41 55C41 55.7956 41.3161 56.5587 41.8787 57.1213C42.4413 57.6839 43.2044 58 44 58ZM45 55C45 55.1978 44.9414 55.3911 44.8315 55.5556C44.7216 55.72 44.5654 55.8482 44.3827 55.9239C44.2 55.9996 43.9989 56.0194 43.8049 55.9808C43.6109 55.9422 43.4327 55.847 43.2929 55.7071C43.153 55.5673 43.0578 55.3891 43.0192 55.1951C42.9806 55.0011 43.0004 54.8 43.0761 54.6173C43.1518 54.4346 43.28 54.2784 43.4444 54.1685C43.6089 54.0586 43.8022 54 44 54C44.2652 54 44.5196 54.1054 44.7071 54.2929C44.8946 54.4804 45 54.7348 45 55ZM46.816 54H52.184C51.9386 54.6441 51.9386 55.3559 52.184 56H46.816C47.0614 55.3559 47.0614 54.6441 46.816 54ZM55 56C54.8022 56 54.6089 55.9414 54.4444 55.8315C54.28 55.7216 54.1518 55.5654 54.0761 55.3827C54.0004 55.2 53.9806 54.9989 54.0192 54.8049C54.0578 54.6109 54.153 54.4327 54.2929 54.2929C54.4327 54.153 54.6109 54.0578 54.8049 54.0192C54.9989 53.9806 55.2 54.0004 55.3827 54.0761C55.5654 54.1518 55.7216 54.28 55.8315 54.4444C55.9414 54.6089 56 54.8022 56 55C56 55.2652 55.8946 55.5196 55.7071 55.7071C55.5196 55.8946 55.2652 56 55 56ZM19 55C19 54.8022 19.0586 54.6089 19.1685 54.4444C19.2784 54.28 19.4346 54.1518 19.6173 54.0761C19.8 54.0004 20.0011 53.9806 20.1951 54.0192C20.3891 54.0578 20.5673 54.153 20.7071 54.2929C20.847 54.4327 20.9422 54.6109 20.9808 54.8049C21.0194 54.9989 20.9996 55.2 20.9239 55.3827C20.8482 55.5654 20.72 55.7216 20.5556 55.8315C20.3911 55.9414 20.1978 56 20 56C19.7348 56 19.4804 55.8946 19.2929 55.7071C19.1054 55.5196 19 55.2652 19 55ZM17.184 56H11.816C12.0614 55.3559 12.0614 54.6441 11.816 54H17.184C16.9386 54.6441 16.9386 55.3559 17.184 56ZM22.816 54H29.184C28.9386 54.6441 28.9386 55.3559 29.184 56H22.816C23.0614 55.3559 23.0614 54.6441 22.816 54ZM9 54C9.19778 54 9.39112 54.0586 9.55557 54.1685C9.72002 54.2784 9.84819 54.4346 9.92388 54.6173C9.99957 54.8 10.0194 55.0011 9.98079 55.1951C9.9422 55.3891 9.84696 55.5673 9.70711 55.7071C9.56725 55.847 9.38907 55.9422 9.19509 55.9808C9.00111 56.0194 8.80004 55.9996 8.61732 55.9239C8.43459 55.8482 8.27841 55.72 8.16853 55.5556C8.05865 55.3911 8 55.1978 8 55C8 54.7348 8.10536 54.4804 8.29289 54.2929C8.48043 54.1054 8.73478 54 9 54ZM33 55C33 55.1978 32.9414 55.3911 32.8315 55.5556C32.7216 55.72 32.5654 55.8482 32.3827 55.9239C32.2 55.9996 31.9989 56.0194 31.8049 55.9808C31.6109 55.9422 31.4327 55.847 31.2929 55.7071C31.153 55.5673 31.0578 55.3891 31.0192 55.1951C30.9806 55.0011 31.0004 54.8 31.0761 54.6173C31.1518 54.4346 31.28 54.2784 31.4444 54.1685C31.6089 54.0586 31.8022 54 32 54C32.2652 54 32.5196 54.1054 32.7071 54.2929C32.8946 54.4804 33 54.7348 33 55Z" fill="url(#paint9_linear_224_9381)"/>
<defs>
<linearGradient id="paint0_linear_224_9381" x1="10.8636" y1="11.375" x2="26.4195" y2="61.771" gradientUnits="userSpaceOnUse">
<stop stop-color="#FFDA49"/>
<stop offset="1" stop-color="#FFB800"/>
</linearGradient>
<linearGradient id="paint1_linear_224_9381" x1="10.8636" y1="11.375" x2="26.4195" y2="61.771" gradientUnits="userSpaceOnUse">
<stop stop-color="#FFDA49"/>
<stop offset="1" stop-color="#FFB800"/>
</linearGradient>
<linearGradient id="paint2_linear_224_9381" x1="10.8636" y1="11.375" x2="26.4195" y2="61.771" gradientUnits="userSpaceOnUse">
<stop stop-color="#FFDA49"/>
<stop offset="1" stop-color="#FFB800"/>
</linearGradient>
<linearGradient id="paint3_linear_224_9381" x1="10.8636" y1="11.375" x2="26.4195" y2="61.771" gradientUnits="userSpaceOnUse">
<stop stop-color="#FFDA49"/>
<stop offset="1" stop-color="#FFB800"/>
</linearGradient>
<linearGradient id="paint4_linear_224_9381" x1="10.8636" y1="11.375" x2="26.4195" y2="61.771" gradientUnits="userSpaceOnUse">
<stop stop-color="#FFDA49"/>
<stop offset="1" stop-color="#FFB800"/>
</linearGradient>
<linearGradient id="paint5_linear_224_9381" x1="10.8636" y1="11.375" x2="26.4195" y2="61.771" gradientUnits="userSpaceOnUse">
<stop stop-color="#FFDA49"/>
<stop offset="1" stop-color="#FFB800"/>
</linearGradient>
<linearGradient id="paint6_linear_224_9381" x1="10.8636" y1="11.375" x2="26.4195" y2="61.771" gradientUnits="userSpaceOnUse">
<stop stop-color="#FFDA49"/>
<stop offset="1" stop-color="#FFB800"/>
</linearGradient>
<linearGradient id="paint7_linear_224_9381" x1="10.8636" y1="11.375" x2="26.4195" y2="61.771" gradientUnits="userSpaceOnUse">
<stop stop-color="#FFDA49"/>
<stop offset="1" stop-color="#FFB800"/>
</linearGradient>
<linearGradient id="paint8_linear_224_9381" x1="10.8636" y1="11.375" x2="26.4195" y2="61.771" gradientUnits="userSpaceOnUse">
<stop stop-color="#FFDA49"/>
<stop offset="1" stop-color="#FFB800"/>
</linearGradient>
<linearGradient id="paint9_linear_224_9381" x1="10.8636" y1="11.375" x2="26.4195" y2="61.771" gradientUnits="userSpaceOnUse">
<stop stop-color="#FFDA49"/>
<stop offset="1" stop-color="#FFB800"/>
</linearGradient>
</defs>
</svg>
