<svg width="17" height="20" viewBox="0 0 17 20" xmlns="http://www.w3.org/2000/svg">
<path fill-rule="evenodd" clip-rule="evenodd" d="M12.629 3.12993L12.5 3.25348L11.9506 3.77972C11.5679 4.14618 10.9666 4.15042 10.5788 3.78938L8.82705 2.15822C8.64075 1.98474 8.35416 1.97903 8.16113 2.14495L6.21343 3.81905C5.81247 4.16368 5.21314 4.13638 4.84505 3.75672L4.5 3.40083L4.34757 3.2436L3.69708 2.57267L3.35864 2.22359C3.04581 1.90094 2.5 2.12284 2.5 2.57267V3.05934V3.99472V4.21392V15.3692V15.8536V16.9288V17.2782C2.5 17.7684 3.13021 17.9669 3.41011 17.5648L3.60959 17.2782L4.22346 16.3963L4.5 15.999L4.57396 15.8928C4.93412 15.3753 5.67616 15.3161 6.11352 15.7699L8.11164 17.8431C8.31876 18.058 8.66636 18.0447 8.85648 17.8145L10.4923 15.8344C10.8944 15.3477 11.6403 15.3508 12.0383 15.8409L12.5 16.4095L12.7155 16.6748L13.3554 17.4628L13.6122 17.779C13.9092 18.1447 14.5 17.9343 14.5 17.4628V17.0552V16.0393V15.6972V4.11013V3.93133V3.03399V2.50989C14.5 2.06899 13.9726 1.84309 13.6545 2.14774L13.2764 2.50989L12.629 3.12993ZM16.5 2.50989V17.4628C16.5 19.8202 13.5458 20.8724 12.0608 19.0437L11.256 18.0527L10.3972 19.0923C9.44658 20.243 7.70855 20.3096 6.67295 19.2351L5.51912 18.0379L5.05055 18.7111C3.65102 20.7217 0.5 19.7295 0.5 17.2782V2.57267C0.5 0.3235 3.22907 -0.785995 4.7932 0.827292L5.62465 1.68488L6.85893 0.623989C7.82411 -0.205604 9.25704 -0.177063 10.1885 0.690313L11.2499 1.6786L12.2725 0.699163C13.863 -0.824097 16.5 0.305391 16.5 2.50989ZM4.5 7.85071C4.5 7.29734 4.94772 6.84875 5.5 6.84875H11.5C12.0523 6.84875 12.5 7.29734 12.5 7.85071C12.5 8.40408 12.0523 8.85267 11.5 8.85267H5.5C4.94772 8.85267 4.5 8.40408 4.5 7.85071ZM5.5 10.8566C4.94772 10.8566 4.5 11.3052 4.5 11.8585C4.5 12.4119 4.94772 12.8605 5.5 12.8605H11.5C12.0523 12.8605 12.5 12.4119 12.5 11.8585C12.5 11.3052 12.0523 10.8566 11.5 10.8566H5.5Z"/>
</svg>
