<svg width="24" height="24" viewBox="0 0 24 24"  xmlns="http://www.w3.org/2000/svg">
<path fill-rule="evenodd" clip-rule="evenodd" d="M13.1956 7.29929C13.5826 6.90527 14.2158 6.89956 14.6098 7.28655L18.7007 11.2866C18.8922 11.4746 19 11.7317 19 12C19 12.2683 18.8922 12.5254 18.7007 12.7134L14.6098 16.7134C14.2158 17.1004 13.5826 17.0947 13.1956 16.7007C12.8087 16.3067 12.8144 15.6735 13.2084 15.2866L15.5547 13L6 13C5.44772 13 5 12.5523 5 12C5 11.4477 5.44772 11 6 11L15.5547 11L13.2084 8.71345C12.8144 8.32646 12.8087 7.69332 13.1956 7.29929Z"/>
</svg>
