<svg  viewBox="0 0 64 64" fill="none" xmlns="http://www.w3.org/2000/svg">
<path d="M54.0946 7H17.8831C14.7404 7 12.1836 9.5049 12.1836 12.5739L11.9503 44.1076H4.88341C4.38259 44.1076 4 44.5455 4 45.0408V49.3806C4 53.4432 7.28745 56.7657 11.2551 56.9479V57H41.749V56.9413C41.9757 56.9505 42.113 57 42.2688 57H42.2905C46.5221 56.9755 49.9331 53.5645 49.9109 49.3797V21.7982H59.1166C59.6174 21.7982 60 21.3498 60 20.8549V12.8922C60.0057 9.65599 57.367 7.02321 54.0946 7ZM11.6456 55.2063C8.41972 55.2063 5.81376 52.5696 5.81376 49.3797V45.9013H34.6073V49.3649C34.6002 51.3837 35.4066 53.3219 36.8479 54.7513C37.0011 54.9037 37.1614 54.9821 37.3253 55.2063H11.6456ZM48.0972 49.3789C48.0972 52.5696 45.5164 55.2063 42.2892 55.2063H42.2706C39.0275 55.1831 36.4135 52.5726 36.421 49.3653V45.0408C36.4237 44.5385 36.0221 44.1251 35.5142 44.1076H13.764L13.9974 12.58C13.9974 10.4942 15.7403 8.79372 17.8831 8.79372H49.8131C48.7795 9.9148 48.0972 11.3332 48.0972 12.9163V49.3789ZM58.1862 20.0045H49.9109V12.9146C49.9109 10.6698 51.7991 8.79372 54.0681 8.79372H54.0933C56.368 8.81606 58.1969 10.6514 58.1862 12.9014V20.0045Z" fill="url(#paint0_linear_224_9402)"/>
<path d="M25.2954 29.0756L29.971 32.2369C30.2761 32.4449 30.6795 32.4449 30.9846 32.2369L35.6461 29.0765C37.2655 27.9838 38.4615 25.6996 38.4615 23.7627V17.3665C38.4713 17.0284 38.2826 16.7148 37.978 16.5611L30.8589 13.098C30.6091 12.9754 30.316 12.9754 30.0662 13.098L22.9604 16.5515C22.6557 16.7052 22.4675 17.0187 22.4777 17.3568V23.7627C22.4777 25.6996 23.6764 27.9838 25.2954 29.0756ZM24.2915 17.9165L30.4696 14.9018L36.6478 17.9248V23.7627C36.6478 25.1137 35.7524 26.8321 34.6228 27.5937L30.459 30.4099L26.3116 27.5941C25.182 26.8317 24.2915 25.1137 24.2915 23.7627V17.9165Z" fill="url(#paint1_linear_224_9402)"/>
<path d="M28.9357 25.1168C29.1049 25.2876 29.336 25.3843 29.5778 25.3857H29.58C29.8209 25.3848 30.0516 25.2893 30.2212 25.1203L33.8288 21.5512C34.1835 21.2009 34.1835 20.6325 33.8293 20.2821C33.4755 19.9314 32.9007 19.9314 32.5464 20.2817L29.5831 23.2118L28.3986 22.029C28.0457 21.6769 27.4713 21.6743 27.1153 22.0233C26.7593 22.3723 26.7571 22.9403 27.1096 23.2924L28.9357 25.1168Z" fill="url(#paint2_linear_224_9402)"/>
<path d="M41.749 34.8027H19.9838C19.483 34.8027 19.0769 35.2043 19.0769 35.6996C19.0769 36.1948 19.483 36.5964 19.9838 36.5964H41.749C42.2498 36.5964 42.6559 36.1948 42.6559 35.6996C42.6559 35.2043 42.2498 34.8027 41.749 34.8027Z" fill="url(#paint3_linear_224_9402)"/>
<path d="M41.749 38.9507H19.9838C19.483 38.9507 19.0769 39.3523 19.0769 39.8475C19.0769 40.3428 19.483 40.7444 19.9838 40.7444H41.749C42.2498 40.7444 42.6559 40.3428 42.6559 39.8475C42.6559 39.3523 42.2498 38.9507 41.749 38.9507Z" fill="url(#paint4_linear_224_9402)"/>
<defs>
<linearGradient id="paint0_linear_224_9402" x1="12.2727" y1="14.8125" x2="24.0549" y2="57.5634" gradientUnits="userSpaceOnUse">
<stop stop-color="#FFDA49"/>
<stop offset="1" stop-color="#FFB800"/>
</linearGradient>
<linearGradient id="paint1_linear_224_9402" x1="12.2727" y1="14.8125" x2="24.0549" y2="57.5634" gradientUnits="userSpaceOnUse">
<stop stop-color="#FFDA49"/>
<stop offset="1" stop-color="#FFB800"/>
</linearGradient>
<linearGradient id="paint2_linear_224_9402" x1="12.2727" y1="14.8125" x2="24.0549" y2="57.5634" gradientUnits="userSpaceOnUse">
<stop stop-color="#FFDA49"/>
<stop offset="1" stop-color="#FFB800"/>
</linearGradient>
<linearGradient id="paint3_linear_224_9402" x1="12.2727" y1="14.8125" x2="24.0549" y2="57.5634" gradientUnits="userSpaceOnUse">
<stop stop-color="#FFDA49"/>
<stop offset="1" stop-color="#FFB800"/>
</linearGradient>
<linearGradient id="paint4_linear_224_9402" x1="12.2727" y1="14.8125" x2="24.0549" y2="57.5634" gradientUnits="userSpaceOnUse">
<stop stop-color="#FFDA49"/>
<stop offset="1" stop-color="#FFB800"/>
</linearGradient>
</defs>
</svg>
