<svg width="24" height="24" viewBox="0 0 24 24"  xmlns="http://www.w3.org/2000/svg">
<path fill-rule="evenodd" clip-rule="evenodd" d="M10.8044 7.29929C10.4174 6.90527 9.78423 6.89956 9.3902 7.28655L5.29929 11.2866C5.10784 11.4746 5 11.7317 5 12C5 12.2683 5.10784 12.5254 5.29929 12.7134L9.3902 16.7134C9.78423 17.1004 10.4174 17.0947 10.8044 16.7007C11.1913 16.3067 11.1856 15.6735 10.7916 15.2866L8.44531 13L18 13C18.5523 13 19 12.5523 19 12C19 11.4477 18.5523 11 18 11L8.44531 11L10.7916 8.71345C11.1856 8.32646 11.1913 7.69332 10.8044 7.29929Z"/>
</svg>
