<svg width="64" height="64" viewBox="0 0 64 64" fill="none" xmlns="http://www.w3.org/2000/svg">
<path d="M50.855 21.097C50.941 20.372 51 19.669 51 19C51 8.523 42.477 0 32 0C21.523 0 13 8.523 13 19C13 19.669 13.059 20.372 13.144 21.097C11.349 21.491 10 23.089 10 25V35C10 37.206 11.794 39 14 39H15.685C17.028 39.947 24 45.101 24 50V53C23.447 53 23 53.448 23 54C23 54.552 23.447 55 24 55V57C23.447 57 23 57.448 23 58C23 58.552 23.447 59 24 59C24 61.757 26.243 64 29 64H35C37.757 64 40 61.757 40 59C40.553 59 41 58.552 41 58C41 57.448 40.553 57 40 57V55C40.553 55 41 54.552 41 54C41 53.448 40.553 53 40 53V50C40 45.101 46.972 39.947 48.314 39H50C52.206 39 54 37.206 54 35V25C54 23.089 52.651 21.491 50.855 21.097ZM32 2C41.374 2 49 9.626 49 19C49 19.632 48.941 20.302 48.853 21H15.146C15.059 20.302 15 19.632 15 19C15 9.626 22.626 2 32 2ZM35 62H29C27.346 62 26 60.654 26 59H38C38 60.654 36.654 62 35 62ZM38 57H26V55H38V57ZM26 53V51H38V53H26ZM38.07 49H25.93C25.367 44.946 21.554 41.154 18.964 39H45.036C42.446 41.154 38.634 44.946 38.07 49ZM52 35C52 36.103 51.102 37 50 37H14C12.897 37 12 36.103 12 35V25C12 23.897 12.897 23 14 23H50C51.102 23 52 23.897 52 25V35Z" fill="url(#paint0_linear_220_9342)"/>
<path d="M26 32H23V27C23 26.448 22.553 26 22 26C21.447 26 21 26.448 21 27V33C21 33.552 21.447 34 22 34H26C26.553 34 27 33.552 27 33C27 32.448 26.553 32 26 32Z" fill="url(#paint1_linear_220_9342)"/>
<path d="M34 28C34.553 28 35 27.552 35 27C35 26.448 34.553 26 34 26H30C29.447 26 29 26.448 29 27V33C29 33.552 29.447 34 30 34H34C34.553 34 35 33.552 35 33C35 32.448 34.553 32 34 32H31V31H33C33.553 31 34 30.552 34 30C34 29.448 33.553 29 33 29H31V28H34Z" fill="url(#paint2_linear_220_9342)"/>
<path d="M40 26H38C37.447 26 37 26.448 37 27C37 27.552 37.447 28 38 28H40C40.552 28 41 28.449 41 29V31C41 31.551 40.552 32 40 32H39V30C39 29.448 38.553 29 38 29C37.447 29 37 29.448 37 30V33C37 33.552 37.447 34 38 34H40C41.654 34 43 32.654 43 31V29C43 27.346 41.654 26 40 26Z" fill="url(#paint3_linear_220_9342)"/>
<defs>
<linearGradient id="paint0_linear_220_9342" x1="16.5" y1="10" x2="38.5" y2="59" gradientUnits="userSpaceOnUse">
<stop stop-color="#FFDA49"/>
<stop offset="1" stop-color="#FFB800"/>
</linearGradient>
<linearGradient id="paint1_linear_220_9342" x1="16.5" y1="10" x2="38.5" y2="59" gradientUnits="userSpaceOnUse">
<stop stop-color="#FFDA49"/>
<stop offset="1" stop-color="#FFB800"/>
</linearGradient>
<linearGradient id="paint2_linear_220_9342" x1="16.5" y1="10" x2="38.5" y2="59" gradientUnits="userSpaceOnUse">
<stop stop-color="#FFDA49"/>
<stop offset="1" stop-color="#FFB800"/>
</linearGradient>
<linearGradient id="paint3_linear_220_9342" x1="16.5" y1="10" x2="38.5" y2="59" gradientUnits="userSpaceOnUse">
<stop stop-color="#FFDA49"/>
<stop offset="1" stop-color="#FFB800"/>
</linearGradient>
</defs>
</svg>
