<svg width="21" height="21" viewBox="0 0 21 21" fill="none" xmlns="http://www.w3.org/2000/svg">
<path d="M7.50001 11.0001H5.50001C5.23479 11.0001 4.98044 11.1054 4.7929 11.293C4.60537 11.4805 4.50001 11.7349 4.50001 12.0001C4.50001 12.2653 4.60537 12.5196 4.7929 12.7072C4.98044 12.8947 5.23479 13.0001 5.50001 13.0001H7.50001C7.76522 13.0001 8.01958 12.8947 8.20711 12.7072C8.39465 12.5196 8.50001 12.2653 8.50001 12.0001C8.50001 11.7349 8.39465 11.4805 8.20711 11.293C8.01958 11.1054 7.76522 11.0001 7.50001 11.0001ZM6.50001 9.00007H10.5C10.7652 9.00007 11.0196 8.89471 11.2071 8.70717C11.3947 8.51964 11.5 8.26528 11.5 8.00007C11.5 7.73485 11.3947 7.4805 11.2071 7.29296C11.0196 7.10543 10.7652 7.00007 10.5 7.00007H6.50001C6.23479 7.00007 5.98044 7.10543 5.7929 7.29296C5.60537 7.4805 5.50001 7.73485 5.50001 8.00007C5.50001 8.26528 5.60537 8.51964 5.7929 8.70717C5.98044 8.89471 6.23479 9.00007 6.50001 9.00007ZM7.50001 15.0001H5.50001C5.23479 15.0001 4.98044 15.1054 4.7929 15.293C4.60537 15.4805 4.50001 15.7349 4.50001 16.0001C4.50001 16.2653 4.60537 16.5196 4.7929 16.7072C4.98044 16.8947 5.23479 17.0001 5.50001 17.0001H7.50001C7.76522 17.0001 8.01958 16.8947 8.20711 16.7072C8.39465 16.5196 8.50001 16.2653 8.50001 16.0001C8.50001 15.7349 8.39465 15.4805 8.20711 15.293C8.01958 15.1054 7.76522 15.0001 7.50001 15.0001ZM19.5 11.0001H16.5V2.00007C16.5007 1.82386 16.4548 1.65059 16.367 1.49781C16.2792 1.34504 16.1526 1.21817 16 1.13007C15.848 1.0423 15.6755 0.996094 15.5 0.996094C15.3245 0.996094 15.152 1.0423 15 1.13007L12 2.85007L9.00001 1.13007C8.84799 1.0423 8.67554 0.996094 8.50001 0.996094C8.32447 0.996094 8.15203 1.0423 8.00001 1.13007L5.00001 2.85007L2.00001 1.13007C1.84799 1.0423 1.67554 0.996094 1.50001 0.996094C1.32447 0.996094 1.15203 1.0423 1.00001 1.13007C0.847404 1.21817 0.720789 1.34504 0.632986 1.49781C0.545183 1.65059 0.499308 1.82386 0.500008 2.00007V18.0001C0.500008 18.7957 0.816078 19.5588 1.37869 20.1214C1.9413 20.684 2.70436 21.0001 3.50001 21.0001H17.5C18.2957 21.0001 19.0587 20.684 19.6213 20.1214C20.1839 19.5588 20.5 18.7957 20.5 18.0001V12.0001C20.5 11.7349 20.3947 11.4805 20.2071 11.293C20.0196 11.1054 19.7652 11.0001 19.5 11.0001ZM3.50001 19.0001C3.23479 19.0001 2.98044 18.8947 2.7929 18.7072C2.60536 18.5196 2.50001 18.2653 2.50001 18.0001V3.73007L4.50001 4.87007C4.65435 4.95068 4.82589 4.99278 5.00001 4.99278C5.17413 4.99278 5.34567 4.95068 5.50001 4.87007L8.50001 3.15007L11.5 4.87007C11.6543 4.95068 11.8259 4.99278 12 4.99278C12.1741 4.99278 12.3457 4.95068 12.5 4.87007L14.5 3.73007V18.0001C14.5027 18.3412 14.5636 18.6794 14.68 19.0001H3.50001ZM18.5 18.0001C18.5 18.2653 18.3947 18.5196 18.2071 18.7072C18.0196 18.8947 17.7652 19.0001 17.5 19.0001C17.2348 19.0001 16.9804 18.8947 16.7929 18.7072C16.6054 18.5196 16.5 18.2653 16.5 18.0001V13.0001H18.5V18.0001ZM12.06 15.1701C12.0043 15.1322 11.9437 15.102 11.88 15.0801C11.8205 15.0496 11.7562 15.0293 11.69 15.0201C11.5294 14.9879 11.3633 14.9957 11.2063 15.0428C11.0494 15.0899 10.9064 15.1748 10.79 15.2901C10.6073 15.4817 10.5037 15.7353 10.5 16.0001C10.4984 16.1301 10.5222 16.2592 10.57 16.3801C10.6244 16.5016 10.6987 16.6131 10.79 16.7101C10.8872 16.7984 10.9988 16.8694 11.12 16.9201C11.2397 16.973 11.3691 17.0003 11.5 17.0003C11.6309 17.0003 11.7603 16.973 11.88 16.9201C12.0012 16.8694 12.1128 16.7984 12.21 16.7101C12.3027 16.6166 12.376 16.5058 12.4258 16.384C12.4755 16.2621 12.5008 16.1317 12.5 16.0001C12.4963 15.7353 12.3927 15.4817 12.21 15.2901C12.1625 15.2471 12.1124 15.207 12.06 15.1701ZM12.2 11.2901C12.0832 11.1764 11.9404 11.0929 11.7841 11.047C11.6277 11.0011 11.4624 10.9941 11.3027 11.0266C11.143 11.0591 10.9937 11.1302 10.8677 11.2337C10.7418 11.3371 10.643 11.4697 10.58 11.6201C10.5178 11.7716 10.4937 11.936 10.5099 12.099C10.5261 12.262 10.5821 12.4185 10.6729 12.5548C10.7638 12.6911 10.8867 12.8029 11.0309 12.8806C11.1751 12.9582 11.3362 12.9993 11.5 13.0001C11.7652 13.0001 12.0196 12.8947 12.2071 12.7072C12.3947 12.5196 12.5 12.2653 12.5 12.0001C12.4984 11.8694 12.4712 11.7403 12.42 11.6201C12.3718 11.4952 12.2967 11.3826 12.2 11.2901Z" fill="#121211"/>
</svg>
