<svg width="24" height="24" viewBox="0 0 24 24"  xmlns="http://www.w3.org/2000/svg">
<path fill-rule="evenodd" clip-rule="evenodd" d="M5.33122 9H9H15H18.6688L17.4146 17.1521C17.3396 17.6399 16.9198 18 16.4262 18H7.57376C7.08019 18 6.66044 17.6399 6.58539 17.1521L5.33122 9ZM16 5V7H18.6688H21C21.5523 7 22 7.44772 22 8C22 8.55228 21.5523 9 21 9H20.6692C20.669 9.10013 20.6613 9.2017 20.6455 9.30411L19.3914 17.4562C19.1662 18.9197 17.907 20 16.4262 20H7.57376C6.09304 20 4.83379 18.9197 4.60864 17.4562L3.35448 9.30411C3.33872 9.2017 3.331 9.10013 3.3308 9H3C2.44772 9 2 8.55228 2 8C2 7.44772 2.44772 7 3 7H5.33122H8V5C8 4.44772 8.44772 4 9 4H15C15.5523 4 16 4.44772 16 5ZM10 7H14V6H10V7ZM12 16C11.4477 16 11 15.5523 11 15V12C11 11.4477 11.4477 11 12 11C12.5523 11 13 11.4477 13 12V15C13 15.5523 12.5523 16 12 16ZM8 15C8 15.5523 8.44772 16 9 16C9.55228 16 10 15.5523 10 15V12C10 11.4477 9.55228 11 9 11C8.44772 11 8 11.4477 8 12V15ZM14 15C14 15.5523 14.4477 16 15 16C15.5523 16 16 15.5523 16 15V12C16 11.4477 15.5523 11 15 11C14.4477 11 14 11.4477 14 12V15Z"/>
</svg>
