<svg width="64" height="64" viewBox="0 0 64 64" fill="none" xmlns="http://www.w3.org/2000/svg">
<path d="M10.9991 47C10.4057 47 9.82572 47.176 9.33237 47.5056C8.83902 47.8352 8.4545 48.3038 8.22744 48.852C8.00038 49.4001 7.94097 50.0033 8.05673 50.5853C8.17248 51.1672 8.4582 51.7018 8.87776 52.1213C9.29732 52.5409 9.83187 52.8266 10.4138 52.9424C10.9958 53.0581 11.599 52.9987 12.1471 52.7716C12.6953 52.5446 13.1638 52.1601 13.4935 51.6667C13.8231 51.1734 13.9991 50.5934 13.9991 50C13.9982 49.2046 13.6818 48.4421 13.1194 47.8797C12.557 47.3173 11.7945 47.0009 10.9991 47ZM10.9991 51C10.8013 51 10.608 50.9414 10.4435 50.8315C10.2791 50.7216 10.1509 50.5654 10.0752 50.3827C9.99951 50.2 9.97971 49.9989 10.0183 49.8049C10.0569 49.6109 10.1521 49.4328 10.292 49.2929C10.4318 49.153 10.61 49.0578 10.804 49.0192C10.998 48.9806 11.199 49.0004 11.3818 49.0761C11.5645 49.1518 11.7207 49.28 11.8305 49.4444C11.9404 49.6089 11.9991 49.8022 11.9991 50C11.9988 50.2651 11.8933 50.5193 11.7059 50.7068C11.5184 50.8943 11.2642 50.9997 10.9991 51Z" fill="url(#paint0_linear_225_9420)"/>
<path d="M52.9991 47C52.4057 47 51.8257 47.176 51.3324 47.5056C50.839 47.8352 50.4545 48.3038 50.2275 48.852C50.0004 49.4001 49.941 50.0033 50.0567 50.5853C50.1725 51.1672 50.4582 51.7018 50.8778 52.1213C51.2973 52.5409 51.8319 52.8266 52.4138 52.9424C52.9958 53.0581 53.5989 52.9987 54.1471 52.7716C54.6953 52.5446 55.1638 52.1601 55.4935 51.6667C55.8231 51.1734 55.9991 50.5934 55.9991 50C55.9982 49.2046 55.6818 48.4421 55.1194 47.8797C54.557 47.3173 53.7945 47.0009 52.9991 47ZM52.9991 51C52.8013 51 52.608 50.9414 52.4435 50.8315C52.2791 50.7216 52.1509 50.5654 52.0752 50.3827C51.9995 50.2 51.9797 49.9989 52.0183 49.8049C52.0569 49.6109 52.1521 49.4328 52.292 49.2929C52.4318 49.153 52.61 49.0578 52.804 49.0192C52.998 48.9806 53.199 49.0004 53.3818 49.0761C53.5645 49.1518 53.7207 49.28 53.8306 49.4444C53.9404 49.6089 53.9991 49.8022 53.9991 50C53.9988 50.2651 53.8933 50.5193 53.7059 50.7068C53.5184 50.8943 53.2642 50.9997 52.9991 51Z" fill="url(#paint1_linear_225_9420)"/>
<path d="M61.9893 38.047L60.7031 38.045L56.8281 26.7138C56.7607 26.5167 56.6334 26.3456 56.4641 26.2243C56.2947 26.1031 56.0917 26.0377 55.8835 26.0374L45.0085 26.0204L45.021 18.0204C45.0212 17.889 44.9955 17.759 44.9454 17.6375C44.8954 17.5161 44.8219 17.4058 44.7292 17.3128C44.6365 17.2197 44.5263 17.1459 44.4051 17.0955C44.2838 17.045 44.1538 17.0189 44.0225 17.0188L29.8518 16.9966C30.0052 16.4518 30.0892 15.8898 30.1018 15.3239C30.1036 14.1811 29.8803 13.0492 29.4447 11.9928C29.009 10.9363 28.3695 9.97604 27.5627 9.16673C26.756 8.35742 25.7977 7.71495 24.7426 7.27598C23.6875 6.83702 22.5563 6.61017 21.4136 6.60838C20.2708 6.60659 19.1389 6.8299 18.0825 7.26556C17.026 7.70121 16.0657 8.34069 15.2564 9.14746C14.4471 9.95424 13.8046 10.9125 13.3657 11.9676C12.9267 13.0227 12.6999 14.1539 12.6981 15.2966C12.709 15.8625 12.7913 16.4248 12.943 16.9701L2.02233 16.953C1.891 16.9528 1.76091 16.9784 1.63949 17.0285C1.51808 17.0786 1.40771 17.1521 1.3147 17.2448C1.22169 17.3375 1.14786 17.4476 1.09741 17.5689C1.04697 17.6902 1.0209 17.8202 1.0207 17.9515L0.970704 49.9515C0.970491 50.0828 0.996149 50.2129 1.04621 50.3343C1.09628 50.4558 1.16977 50.5661 1.26249 50.6591C1.35521 50.7521 1.46535 50.826 1.58661 50.8764C1.70786 50.9269 1.83787 50.9529 1.9692 50.9531L4.0417 50.9564C4.27938 52.6227 5.10958 54.1475 6.38016 55.2515C7.65074 56.3555 9.2766 56.9646 10.9598 56.9672C12.643 56.9698 14.2707 56.3658 15.5447 55.2658C16.8188 54.1658 17.6537 52.6436 17.8966 50.978L46.0417 51.0221C46.2794 52.6884 47.1096 54.2133 48.3801 55.3173C49.6507 56.4212 51.2766 57.0304 52.9597 57.033C54.6429 57.0356 56.2707 56.4316 57.5447 55.3317C58.8187 54.2317 59.6537 52.7094 59.8966 51.0439L61.9691 51.0471C62.1004 51.0473 62.2305 51.0217 62.3519 50.9716C62.4733 50.9216 62.5837 50.8481 62.6767 50.7553C62.7697 50.6626 62.8436 50.5525 62.894 50.4312C62.9445 50.31 62.9705 50.18 62.9707 50.0486L62.988 39.0486C62.9882 38.9173 62.9625 38.7872 62.9124 38.6658C62.8624 38.5443 62.7889 38.434 62.6961 38.341C62.6034 38.2479 62.4932 38.1741 62.372 38.1237C62.2507 38.0732 62.1207 38.0472 61.9893 38.047ZM55.1605 28L58.598 38H44.9991V28H55.1605ZM21.3741 8.625C23.1509 8.62702 24.8544 9.33376 26.1108 10.5902C27.3672 11.8466 28.0739 13.5501 28.076 15.3269C28.076 18.1866 23.7895 24.7903 21.374 28.1769C18.9586 24.7905 14.6722 18.188 14.6722 15.3269C14.6742 13.5501 15.381 11.8466 16.6374 10.5902C17.8938 9.33376 19.5973 8.62702 21.3741 8.625ZM2.99908 19H13.6137C14.2815 20.6013 15.3014 22.5089 16.6733 24.723C18.5996 27.8298 20.4937 30.3675 20.5733 30.474C20.6664 30.5985 20.7873 30.6995 20.9263 30.7692C21.0653 30.8388 21.2186 30.875 21.3741 30.875C21.5295 30.875 21.6829 30.8388 21.8219 30.7692C21.9609 30.6995 22.0817 30.5985 22.1748 30.474C22.2545 30.3675 24.1486 27.8298 26.0748 24.723C27.4457 22.5124 28.4656 20.6048 29.1345 19H42.9991V49H17.9265C17.6863 47.334 16.8537 45.8104 15.5814 44.7084C14.3091 43.6063 12.6823 42.9997 10.9991 42.9997C9.31587 42.9997 7.68903 43.6063 6.41673 44.7084C5.14443 45.8104 4.31189 47.334 4.07171 49H2.99908V19ZM10.9991 55C10.0102 55 9.04348 54.7068 8.22123 54.1574C7.39898 53.6079 6.75812 52.8271 6.37968 51.9134C6.00124 50.9998 5.90223 49.9945 6.09515 49.0246C6.28808 48.0546 6.76428 47.1637 7.46355 46.4645C8.16281 45.7652 9.05372 45.289 10.0236 45.0961C10.9935 44.9032 11.9989 45.0022 12.9125 45.3806C13.8261 45.759 14.607 46.3999 15.1564 47.2222C15.7058 48.0444 15.9991 49.0111 15.9991 50C15.9976 51.3256 15.4703 52.5965 14.533 53.5339C13.5956 54.4713 12.3247 54.9985 10.9991 55ZM52.9991 55C52.0102 55 51.0435 54.7068 50.2212 54.1574C49.399 53.6079 48.7581 52.8271 48.3797 51.9134C48.0013 50.9998 47.9022 49.9945 48.0952 49.0246C48.2881 48.0546 48.7643 47.1637 49.4636 46.4645C50.1628 45.7652 51.0537 45.289 52.0236 45.0961C52.9935 44.9032 53.9989 45.0022 54.9125 45.3806C55.8261 45.759 56.607 46.3999 57.1564 47.2222C57.7058 48.0444 57.9991 49.0111 57.9991 50C57.9976 51.3256 57.4703 52.5965 56.533 53.5339C55.5956 54.4713 54.3247 54.9985 52.9991 55ZM60.9991 49H59.9265C59.6863 47.334 58.8537 45.8104 57.5814 44.7084C56.3091 43.6063 54.6823 42.9997 52.9991 42.9997C51.3159 42.9997 49.689 43.6063 48.4167 44.7084C47.1444 45.8104 46.3119 47.334 46.0717 49H44.9991V40H60.9991V49Z" fill="url(#paint2_linear_225_9420)"/>
<path d="M25.8124 15.0365C25.8124 14.1587 25.5521 13.3006 25.0644 12.5707C24.5767 11.8408 23.8835 11.272 23.0725 10.9361C22.2615 10.6002 21.3691 10.5123 20.5081 10.6836C19.6472 10.8548 18.8563 11.2775 18.2356 11.8983C17.6149 12.519 17.1922 13.3098 17.021 14.1708C16.8497 15.0317 16.9376 15.9241 17.2736 16.7351C17.6095 17.5461 18.1784 18.2393 18.9083 18.727C19.6381 19.2147 20.4963 19.475 21.3741 19.475C22.5508 19.4737 23.679 19.0056 24.5111 18.1735C25.3431 17.3414 25.8112 16.2132 25.8124 15.0365ZM18.9357 15.0365C18.9357 14.5542 19.0788 14.0828 19.3467 13.6818C19.6147 13.2809 19.9955 12.9684 20.441 12.7838C20.8866 12.5993 21.3769 12.551 21.8499 12.6451C22.3228 12.7392 22.7573 12.9715 23.0983 13.3125C23.4393 13.6535 23.6715 14.088 23.7656 14.561C23.8597 15.034 23.8114 15.5242 23.6268 15.9698C23.4423 16.4153 23.1297 16.7961 22.7288 17.0641C22.3278 17.332 21.8563 17.475 21.3741 17.475C20.7276 17.4743 20.1077 17.2172 19.6506 16.76C19.1935 16.3028 18.9364 15.683 18.9357 15.0365Z" fill="url(#paint3_linear_225_9420)"/>
<path d="M9.99908 40H33.9991C34.2643 40 34.5187 39.8946 34.7062 39.7071C34.8937 39.5196 34.9991 39.2652 34.9991 39C34.9991 38.7348 34.8937 38.4804 34.7062 38.2929C34.5187 38.1054 34.2643 38 33.9991 38H10.9991V37H20.9991C21.2643 37 21.5187 36.8946 21.7062 36.7071C21.8937 36.5196 21.9991 36.2652 21.9991 36V33C21.9991 32.7348 21.8937 32.4804 21.7062 32.2929C21.5187 32.1054 21.2643 32 20.9991 32C20.7339 32 20.4795 32.1054 20.292 32.2929C20.1044 32.4804 19.9991 32.7348 19.9991 33V35H9.99908C9.73386 35 9.47951 35.1054 9.29198 35.2929C9.10444 35.4804 8.99908 35.7348 8.99908 36V39C8.99908 39.2652 9.10444 39.5196 9.29198 39.7071C9.47951 39.8946 9.73386 40 9.99908 40Z" fill="url(#paint4_linear_225_9420)"/>
<path d="M36.9991 39.875H37.9991C38.2643 39.875 38.5187 39.7696 38.7062 39.5821C38.8937 39.3946 38.9991 39.1402 38.9991 38.875C38.9991 38.6098 38.8937 38.3554 38.7062 38.1679C38.5187 37.9804 38.2643 37.875 37.9991 37.875H36.9991C36.7339 37.875 36.4795 37.9804 36.292 38.1679C36.1044 38.3554 35.9991 38.6098 35.9991 38.875C35.9991 39.1402 36.1044 39.3946 36.292 39.5821C36.4795 39.7696 36.7339 39.875 36.9991 39.875Z" fill="url(#paint5_linear_225_9420)"/>
<path d="M36.9991 46H28.9991C28.7339 46 28.4795 46.1054 28.292 46.2929C28.1044 46.4804 27.9991 46.7348 27.9991 47C27.9991 47.2652 28.1044 47.5196 28.292 47.7071C28.4795 47.8946 28.7339 48 28.9991 48H36.9991C37.2643 48 37.5186 47.8946 37.7062 47.7071C37.8937 47.5196 37.9991 47.2652 37.9991 47C37.9991 46.7348 37.8937 46.4804 37.7062 46.2929C37.5186 46.1054 37.2643 46 36.9991 46Z" fill="url(#paint6_linear_225_9420)"/>
<path d="M39.9991 48H40.9991C41.2643 48 41.5187 47.8946 41.7062 47.7071C41.8937 47.5196 41.9991 47.2652 41.9991 47C41.9991 46.7348 41.8937 46.4804 41.7062 46.2929C41.5187 46.1054 41.2643 46 40.9991 46H39.9991C39.7339 46 39.4795 46.1054 39.292 46.2929C39.1044 46.4804 38.9991 46.7348 38.9991 47C38.9991 47.2652 39.1044 47.5196 39.292 47.7071C39.4795 47.8946 39.7339 48 39.9991 48Z" fill="url(#paint7_linear_225_9420)"/>
<defs>
<linearGradient id="paint0_linear_225_9420" x1="10.1323" y1="14.4872" x2="21.0849" y2="58.1272" gradientUnits="userSpaceOnUse">
<stop stop-color="#FFDA49"/>
<stop offset="1" stop-color="#FFB800"/>
</linearGradient>
<linearGradient id="paint1_linear_225_9420" x1="10.1323" y1="14.4872" x2="21.0849" y2="58.1272" gradientUnits="userSpaceOnUse">
<stop stop-color="#FFDA49"/>
<stop offset="1" stop-color="#FFB800"/>
</linearGradient>
<linearGradient id="paint2_linear_225_9420" x1="10.1323" y1="14.4872" x2="21.0849" y2="58.1272" gradientUnits="userSpaceOnUse">
<stop stop-color="#FFDA49"/>
<stop offset="1" stop-color="#FFB800"/>
</linearGradient>
<linearGradient id="paint3_linear_225_9420" x1="10.1323" y1="14.4872" x2="21.0849" y2="58.1272" gradientUnits="userSpaceOnUse">
<stop stop-color="#FFDA49"/>
<stop offset="1" stop-color="#FFB800"/>
</linearGradient>
<linearGradient id="paint4_linear_225_9420" x1="10.1323" y1="14.4872" x2="21.0849" y2="58.1272" gradientUnits="userSpaceOnUse">
<stop stop-color="#FFDA49"/>
<stop offset="1" stop-color="#FFB800"/>
</linearGradient>
<linearGradient id="paint5_linear_225_9420" x1="10.1323" y1="14.4872" x2="21.0849" y2="58.1272" gradientUnits="userSpaceOnUse">
<stop stop-color="#FFDA49"/>
<stop offset="1" stop-color="#FFB800"/>
</linearGradient>
<linearGradient id="paint6_linear_225_9420" x1="10.1323" y1="14.4872" x2="21.0849" y2="58.1272" gradientUnits="userSpaceOnUse">
<stop stop-color="#FFDA49"/>
<stop offset="1" stop-color="#FFB800"/>
</linearGradient>
<linearGradient id="paint7_linear_225_9420" x1="10.1323" y1="14.4872" x2="21.0849" y2="58.1272" gradientUnits="userSpaceOnUse">
<stop stop-color="#FFDA49"/>
<stop offset="1" stop-color="#FFB800"/>
</linearGradient>
</defs>
</svg>
